<mxfile host="app.diagrams.net" modified="2020-12-05T04:57:06.852Z" agent="5.0 (Windows NT 6.1; Win64; x64) AppleWebKit/537.36 (KHTML, like Gecko) Chrome/86.0.4240.198 Safari/537.36" etag="TqMIWbDrh7Orucjtve_w" version="13.10.9" type="github">
  <diagram name="Page-1" id="9361dd3d-8414-5efd-6122-117bd74ce7a7">
    <mxGraphModel dx="1022" dy="736" grid="1" gridSize="10" guides="1" tooltips="1" connect="1" arrows="1" fold="1" page="0" pageScale="1.5" pageWidth="826" pageHeight="1169" background="#ffffff" math="0" shadow="0">
      <root>
        <mxCell id="0" />
        <mxCell id="1" parent="0" />
        <mxCell id="y9cf0kZJJATMz0g1FBvv-94" style="edgeStyle=orthogonalEdgeStyle;rounded=0;orthogonalLoop=1;jettySize=auto;html=1;" edge="1" parent="1" source="y9cf0kZJJATMz0g1FBvv-89" target="y9cf0kZJJATMz0g1FBvv-92">
          <mxGeometry relative="1" as="geometry" />
        </mxCell>
        <mxCell id="y9cf0kZJJATMz0g1FBvv-89" value="ReadFileConfig&lt;br&gt;（读取每个level的每个inputDir）" style="rounded=1;whiteSpace=wrap;html=1;" vertex="1" parent="1">
          <mxGeometry x="800" y="190" width="120" height="60" as="geometry" />
        </mxCell>
        <mxCell id="y9cf0kZJJATMz0g1FBvv-90" value="NeedWriteDir" style="rounded=1;whiteSpace=wrap;html=1;" vertex="1" parent="1">
          <mxGeometry x="530" y="490" width="120" height="60" as="geometry" />
        </mxCell>
        <mxCell id="y9cf0kZJJATMz0g1FBvv-91" value="file_version" style="rounded=0;whiteSpace=wrap;html=1;" vertex="1" parent="1">
          <mxGeometry x="800" y="490" width="120" height="60" as="geometry" />
        </mxCell>
        <mxCell id="y9cf0kZJJATMz0g1FBvv-93" style="edgeStyle=orthogonalEdgeStyle;rounded=0;orthogonalLoop=1;jettySize=auto;html=1;" edge="1" parent="1" source="y9cf0kZJJATMz0g1FBvv-92" target="y9cf0kZJJATMz0g1FBvv-91">
          <mxGeometry relative="1" as="geometry" />
        </mxCell>
        <mxCell id="y9cf0kZJJATMz0g1FBvv-97" style="edgeStyle=orthogonalEdgeStyle;rounded=0;orthogonalLoop=1;jettySize=auto;html=1;" edge="1" parent="1" source="y9cf0kZJJATMz0g1FBvv-92" target="y9cf0kZJJATMz0g1FBvv-96">
          <mxGeometry relative="1" as="geometry" />
        </mxCell>
        <mxCell id="y9cf0kZJJATMz0g1FBvv-92" value="GetXmlConfig&lt;br&gt;（m_file_proprity&lt;br&gt;m_file_level&lt;br&gt;file_version&lt;br&gt;m_dir_map）" style="rounded=1;whiteSpace=wrap;html=1;" vertex="1" parent="1">
          <mxGeometry x="800" y="330" width="120" height="80" as="geometry" />
        </mxCell>
        <mxCell id="y9cf0kZJJATMz0g1FBvv-95" value="FindWriteFile" style="rounded=1;whiteSpace=wrap;html=1;" vertex="1" parent="1">
          <mxGeometry x="530" y="620" width="120" height="60" as="geometry" />
        </mxCell>
        <mxCell id="y9cf0kZJJATMz0g1FBvv-96" value="m_dir_map" style="rounded=0;whiteSpace=wrap;html=1;" vertex="1" parent="1">
          <mxGeometry x="970" y="620" width="120" height="60" as="geometry" />
        </mxCell>
        <mxCell id="y9cf0kZJJATMz0g1FBvv-98" value="SaveFile" style="rounded=1;whiteSpace=wrap;html=1;" vertex="1" parent="1">
          <mxGeometry x="530" y="750" width="120" height="60" as="geometry" />
        </mxCell>
        <mxCell id="y9cf0kZJJATMz0g1FBvv-99" value="m_file_map" style="rounded=0;whiteSpace=wrap;html=1;" vertex="1" parent="1">
          <mxGeometry x="1260" y="750" width="120" height="60" as="geometry" />
        </mxCell>
        <mxCell id="y9cf0kZJJATMz0g1FBvv-101" value="GetSystemList" style="rounded=1;whiteSpace=wrap;html=1;" vertex="1" parent="1">
          <mxGeometry x="1130" y="750" width="120" height="60" as="geometry" />
        </mxCell>
        <mxCell id="y9cf0kZJJATMz0g1FBvv-102" value="m_path_map" style="rounded=0;whiteSpace=wrap;html=1;" vertex="1" parent="1">
          <mxGeometry x="1440" y="750" width="120" height="60" as="geometry" />
        </mxCell>
        <mxCell id="y9cf0kZJJATMz0g1FBvv-104" style="edgeStyle=orthogonalEdgeStyle;rounded=0;orthogonalLoop=1;jettySize=auto;html=1;" edge="1" parent="1" source="y9cf0kZJJATMz0g1FBvv-103" target="y9cf0kZJJATMz0g1FBvv-102">
          <mxGeometry relative="1" as="geometry" />
        </mxCell>
        <mxCell id="y9cf0kZJJATMz0g1FBvv-105" style="edgeStyle=orthogonalEdgeStyle;rounded=0;orthogonalLoop=1;jettySize=auto;html=1;" edge="1" parent="1" source="y9cf0kZJJATMz0g1FBvv-103" target="y9cf0kZJJATMz0g1FBvv-99">
          <mxGeometry relative="1" as="geometry" />
        </mxCell>
        <mxCell id="y9cf0kZJJATMz0g1FBvv-103" value="AddFileData" style="rounded=1;whiteSpace=wrap;html=1;" vertex="1" parent="1">
          <mxGeometry x="1350" y="430" width="120" height="60" as="geometry" />
        </mxCell>
        <mxCell id="y9cf0kZJJATMz0g1FBvv-108" style="edgeStyle=orthogonalEdgeStyle;rounded=0;orthogonalLoop=1;jettySize=auto;html=1;" edge="1" parent="1" source="y9cf0kZJJATMz0g1FBvv-107" target="y9cf0kZJJATMz0g1FBvv-101">
          <mxGeometry relative="1" as="geometry" />
        </mxCell>
        <mxCell id="y9cf0kZJJATMz0g1FBvv-107" value="m_system_list" style="rounded=0;whiteSpace=wrap;html=1;" vertex="1" parent="1">
          <mxGeometry x="1130" y="620" width="120" height="60" as="geometry" />
        </mxCell>
        <mxCell id="y9cf0kZJJATMz0g1FBvv-110" style="edgeStyle=orthogonalEdgeStyle;rounded=0;orthogonalLoop=1;jettySize=auto;html=1;" edge="1" parent="1" source="y9cf0kZJJATMz0g1FBvv-109" target="y9cf0kZJJATMz0g1FBvv-107">
          <mxGeometry relative="1" as="geometry" />
        </mxCell>
        <mxCell id="y9cf0kZJJATMz0g1FBvv-112" style="edgeStyle=orthogonalEdgeStyle;rounded=0;orthogonalLoop=1;jettySize=auto;html=1;" edge="1" parent="1" source="y9cf0kZJJATMz0g1FBvv-109" target="y9cf0kZJJATMz0g1FBvv-111">
          <mxGeometry relative="1" as="geometry" />
        </mxCell>
        <mxCell id="y9cf0kZJJATMz0g1FBvv-109" value="ReadSystem" style="rounded=1;whiteSpace=wrap;html=1;" vertex="1" parent="1">
          <mxGeometry x="1130" y="190" width="120" height="60" as="geometry" />
        </mxCell>
        <mxCell id="y9cf0kZJJATMz0g1FBvv-111" value="" style="shape=image;verticalLabelPosition=bottom;labelBackgroundColor=#ffffff;verticalAlign=top;aspect=fixed;imageAspect=0;image=data:image/png,iVBORw0KGgoAAAANSUhEUgAAAQUAAABeCAYAAAAqqAERAAAQDElEQVR4Ae1d27HkKgx0Xk7K6WxNAJvAfk9tBBvB+bmRcEuAhABhjz22B4/7VJ3yi4dorLYAiRkc/oAAEAACCoFBneMUCAABIOBACngJgAAQyBC4MCk83Z9hcL/8/+T+/Tzc72F0f3+y9uECCACBlQhclhT+TYP7/QADrOxvJAcCiwhclBR+3N9xcH+ei+1DAiAABFYisA8pPJ0bBueGqaj9OUXzPpr5k9Li4lmm4H4oMLl/WZrJ/YvFk5UQhg3h6C0GzqNE+O8xZukoj67nOQW5tVgqO06BwC0ReIsUfh6RDEbnKkPeK7Qe4/+4v9PD/Ucw+2dJyV05H+CvB/dLaasnArk2LIWCFAIhqDpcmIPQpMA9/hhBDowFjkBgCJ/4wTn1EV+CRcigtAxUxrkxv/UsU/pCwX2xRCRjJBW3RArG8xlSYLHZchgffAdHIHA/BFZbCl5xZsggQBiU0p4ItJ/5LztbAm+TgmUVWPfsDn+tjXZe3AUCV0dgNSlQg2EpXL3bIT8QaCOwiRS4OCGHTXMKar7BWwbltZ4PiPMQLw8fnPPDEUnP8xj5RCO3A3MKjASOQMDt5NF41OqD7qFVcwqUMQxTZJVimryzk55o5DkEHrXo6nAOBO6KwFuWwrVAozkFZY1cS3hICwROQ+B7SeHn4f4oj0c/kamHE6dBjIqAwLUQ+GpS+C2xEeTkVMxRXKufIC0QOA2B7yWF0yBERUDguxAAKXxXf6I1QOBtBEAKb0OIAoDAdyEAUviu/jytNbSc693Bf5wb13nJVzI+J/K2H9wwPuoYmir13I2nm6icYXCjmmSey3Hks2lwjsTw/jwNL2DykeltSRyk0HwrrPiJZuKdH/S/fApSWO7yRVIgQrUc/5aLPjQFSKEJL0ihCU1wEN3NUpirZ92za1kKQqzrGnl46suRgumF6N2k9R4LcfmxDNH2cBaBUT6Nyht9GbybtF7SVD4O5T4N2ksyRIA+1FZxYYeoPM/c8mjhiUkykH252JZIYg/ali61R8tGzc/lsN2+X3nryCRms3fir93Pw43RfOdnJLcfGgyTBOLKcCEmKq/J3g7ljO7x5PMwLJByo5CSN9Yb6iqGD1JeHKYMg8hOxUgZMnz5cY+xGIZIGaMfEvjq5V4qd1DtpKGBDz5+xqFWASxbEnK75RksCc45uQwpcHxCHdZcKLmjuAf2XAyKoqM1MyemMubCu0azwtqWQlAqThOiw/TekIFM1PNIOkmGWqa6q63hQ50vawu7dY8cXs7xHkmWJdlpQE/zA37DHONYKmQtd61MonCiiCkNlydp+IZWtqioP4+xIhe5J8psWApSFitzql/mHUrikjxqnoPTcF2Shsut0Zi9QwTQmGeQmKLG89lyd3jYPSkwGfD7Ure5JgWdxlIcUdCKFHROixSW7wVLQW05Y9ThZWo3iLTZdMmebYu1x0R2b1l23fqt57miRiUdR//l90ooytS2HDJLgaFkpZQvsUEArr5XEY7n8ZJgUj7qltCG0Y3eWghycjk1kQxumO1LG0myeBezseXAlphd1O53uyYFMq8WgSNIyiFAlkmRhlfQ9OWkrOHrmcxtIYxMoRj3UJYEWSkznfMdSQqBLKLJX7WlrfRBtmXZuZVvHbXyRgKYnvHrTF9Zfq76iBVOlEuIQ32FOd8Q70kaPRRIyh2UN1kFUjY1TspiYkrpKJ+XR8kq8nPdHqCUh4cs/siWxByIa1dsIjms2AdprvbFZ12TAkm/bCkUbfTKko+VvUk/PUM4tXoZi5yRXPKhRz4mtxQvL+VYUogh4WZbLNkUIZokl8v+/vCBylOKOdIXOShx/vXViqzG9Nw3ovAzpKDq4WxZ3XFJsiIc01Jg64CGC8GqCSQS28L3mgqfE0SSp8A3Xs4tUWY5YClkcFQXTA7VnAKRQNYLWhFSL4TJN1b4eP855dvEe0JJaSoFF8uitjaYPKo8RZlU8/LwwVLwhbYYSh+soCRrec2ysOyxhrcPooja90C+zjQpp5Tdf7jjRB3340ukYJCJIgox86uykgJLGmqxpAuyBFFSWm8FsHwWQpI/b5uVlN7lOTcKzClYqM3cq1cfggJpk55N+VRMTDOqSTj/sDapMwWJVocvW+Uthxw62GofUiiGRNnL2GpLjYOWi7GYk53TvH1UBJAUL1kQpZOSkAi301IwKVMrXaG0agUi1VsrPCk4V5XaqsviYYWyIMo8Io9eedCypZKzsznfBLYMPjTByHJ2P3xgQd87BoXJFP69Aj+Yu9WW1v0PioqqKwR69U3Qgt6DFMw1fg3Dhc6bbQEpXKEXafL8rAnDrXjcgBSCstRDiq2QfTLfXFtACp/smW+q+wak8E3dhbYAgeMRACkcjzFqAAKXQgCkcKnugrBA4HgEQArHY4wagMClEAApXKq7+hFWltbWuuy+0QTxZ2h6Fq4sXPwhLL8FLiv5V4jvg2qz4MDJ1bGKglTPej4FKTR755Oz+eRUlTwrmyJ+8IEog1KQo8W5FCmQI9KHnZC29gdIoYkcSKEJTXC4PH2Tld1JYa6B8mybpUCuzLXXpBTa9cnlSIG+UBTvnwGu3ZF95GL09zcdfYrYiDLCcgyu0OSurF2nf8X71Julq7D2lAxuzjfdZCULNtLuv8ltmH7OL21g8pRzM7bAdCVWexyoWIcUyaiGAmp44MsvXZXlee6eLOSj3KYpvwwfnHO8sYzebEY03bCeOJ6hit2RTP2cXIYUmgFRfu+BMiqSTe/a2ccrNCt4FaxE6TmAyLYUAiFwmuBXj01WZl5oVmyZB0ikIIFRopyWQieFFWWVstJXnJWejv6DIWVy/lSvKHeVRsU6GHVIvpnm0iMigJby80et9Xyh6FMed08KTAa+o01Iii9/kSYjgRhJKN6NFSnozBYpLN/bJyDKnlOYbYsRJck/shssmWXZdevfOZeNVrIvLVsLhnJmX/xQc00AKirSUNjy/ZD86kGSK8pSkUIimUQA1r15dJaiICk3Ww49zjt0TQrYZKV8+RQBekJTFssMKZy3yUpSeImEFMV7jRSCMqpylFKLoi+Sgp2/2lxFZIvWhFwri0URViKKsl/UNU0wrtgpyZPDivSqpsNOuyYFavWypVBgE+cXynE+bX7q5wnUS1bkxCYrcSy8eY9GS6nk3hpSUFaB6q/XScHOv8ZSSNWusxRkVaZ6ufIbsBRyPDZdMTlUYzEigdSDfuefP0M+x0C2GjZZ4QlSbV2Ee5pAN3WOZKoVqFLEbKJRNmCsf8SF5yJkT0al6IuWQrDPZUdoX02yHuSLL4TF8w6qDnmn6jZJc42TpShIzCkYoL17i0GVPotms14pkDkDqSyMp/UKQngUzHGdN1MQIZPB6bxhslGvTiRF22dO4cKbrIiihdWHcZridu3rLAXqn0QoeiWjtfognZ1OCllkEpJTyPNECnp1RE9e0rmQCecvjzO+CWwZVB+1sowOrrsfPuyDkTXJtk/J55fSakvr/vkS3rVGsmbTx+q6KNyDFEx/hYt2WrMtIIWP9ijNx3Q2YbgVjxuQQlCWekixFbJP5ptrC0jhkz3zTXXfgBS+qbvQFiBwPAIgheMxRg1A4FIIgBQu1V0QFggcjwBI4XiMv7IGcdIpgn9qB6N9ms97E/ilvUZI8rfM/u+D2PZSQApN7D45cWfHPjRF/cCD7kjhi2b/P9CdWZUghQwOfQFS0GiU5y1SKNPtdb1kKYg8e1V443IuRwrU+dhPgd9YFSDFAVEPdukOHpeZh+bCXhBc6itHMuPZUYf3FqB8Mnzgh76w5CrMXoKVd6B4F2rvRfaCDDEw/kdUnnZYMpOGyN7JT7CJPBc6uQwpNGMfsJ+C+8+/cMGy0e7YFBWof09yaS+IPX51uiaFRAjME1UaIQTtbrxCi15wL+4xRHlFC09N2j0pMBnwC1Wjo7+W9dPZPQh8bANvyFLmtYYPy/f2iX2w5xRm28KWQvabZFpefc5tte7xs23HUuElfkGCmEJcR7AYIglI8NPgwk/Ar6ubrMf2+xHLYsvhS7wO1yG0LnXXpEAm4WJnU3vLLdWyTIo0PAmk4CXKWgY3Jc9HS2FCWTqAis8535GkQL9CKBGgVVssecO9INuy7OteHTt1SQpyrUmhsgxSBCMPL/xR57Gro/glN675fcZIDhl3tsq+6f2uSYH6ZNlSKHouRjbqsTTvo8DHIke69OTClkNbyXTZKXM4O5YUnOwJUbfFkleRiGlJFNJHBdu8n4Ixp/CSpZCJkRNExu9ZunAxt0SZJYelkMExd9E9KbDwTA5V6CmRQPbmaEWIuSNR/Cq3TX9Ojr/wPqVPx6QQFDB7LpZFbW0wUexDCpaCL7TFUPpyDqG8phLpHssea3jrIJaB9MkLcwpljZUlUSZI1/RePHhbhnRbzjhkGXMKAsniyWVIgVtSrz4EBWIzno6lIvNehdkknC+wNqkzBREywX4KjP/SsSYFypGIgYcH2eqDnlOQfR1fmHSc801gy6Dh6LTUjjs/vxwpbOusmS/vtgI/mKvVltb9D4p6cNXwTTgG4HuQQrE0dwyUJ5XabMv9SIEmojFhuP97dwNSCMpSDyn2B/P4Eufacj9SOB7ve9ZwA1K4Z8ei1UBgKwIgha3IIR8Q+FIEQApf2rFoFhDYisA5pEDLQ6e5l4axdViiJJ8Dw29hK1rIBwRugMAppPCSb/pOYHsHHXGc2alQFAMEboTA8aSw1jf9TfArj8I3y0N2IHA3BPYhhRnvMdM3XXsKDrm3YBncVHsYTu5fFgCVXI6DG6/65SZvMdDwIbku+w7O8of0esmSXWMrl+q7vR1o7y0ReIsUWHnm5gsq3/RICFrZ/01RsUvHnCIWQX4TUg0PysCg2lIoSMHXoUmivfbPLtUgh1vqxm0bvYkUhAyW/MoN3/S5MX+t0Ckq0PeQJ4lkGfh7pOTjI240YgUx5aRQ19EmBX4rXm4vZ8ARCFwYgdWk4L+eS2QQAbF808sve8LOVs6MRN4mBasO616SSp95cjhtFUXXjHMgcB4Cq0mBRHv1y1ntm8ehx8r8102tv+KwFDQ+OAcCZyCwiRRYMCEH6+tJk4+WRbE4p6DG++acwnvDhzAZqcqI8uiJRm4f5hQYCRzvhMBbpCBAGasPpFANg8CbGr9p1YH/1ZzAS6sPUnHcik3lr62NfE6BsvohjNQ9uT9jvgcDkx0mGDXQOL8LAvuQQonWyb4JZfXrrsOcgl4NWZcfqYHAdyFwCCnQl7bfr+zT/dEmTLkM+l39i9YAgdUIHEIKq6U4NQMNJ9TQpXRsOlUWVAYE+kPghqTQXydAIiDQEwIghZ56A7IAgQ4QACl00AkQAQj0hABIoafegCxAoAMEQAoddAJEAAI9IQBS6Kk3IAsQ6AABkEIHnQARgEBPCIAUeuoNyAIEOkAApNBBJ0AEINATAiCFnnoDsgCBDhAAKXTQCRABCPSEAEihp96ALECgAwRACh10AkQAAj0h8D8cM5VgtH2Y0wAAAABJRU5ErkJggg==;" vertex="1" parent="1">
          <mxGeometry x="1059.5" y="30" width="261" height="94" as="geometry" />
        </mxCell>
      </root>
    </mxGraphModel>
  </diagram>
</mxfile>
